<svg width="48" height="48" viewBox="0 0 48 48" fill="none" xmlns="http://www.w3.org/2000/svg">
  <defs>
    <linearGradient id="petalSmall" x1="0" y1="0" x2="1" y2="1">
      <stop offset="0" stop-color="#58AE75"/>
      <stop offset="1" stop-color="#2D8A57"/>
    </linearGradient>
    <linearGradient id="leafSmall" x1="0" y1="0" x2="1" y2="1">
      <stop offset="0" stop-color="#3D8B5B"/>
      <stop offset="1" stop-color="#1F5D3B"/>
    </linearGradient>
  </defs>
  <rect x="2" y="2" width="44" height="44" rx="14" fill="#ECF7EE"/>
  <g transform="translate(8 8)">
    <path d="M16 2C20 6 20 12 16 16C12 12 12 6 16 2Z" fill="url(#petalSmall)"/>
    <path d="M30 16C26 20 20 20 16 16C20 12 26 12 30 16Z" fill="url(#petalSmall)"/>
    <path d="M16 30C12 26 12 20 16 16C20 20 20 26 16 30Z" fill="url(#petalSmall)"/>
    <path d="M2 16C6 12 12 12 16 16C12 20 6 20 2 16Z" fill="url(#petalSmall)"/>
    <circle cx="16" cy="16" r="3.4" fill="url(#leafSmall)"/>
  </g>
</svg>
