<?xml version="1.0" encoding="UTF-8"?>
<svg id="Capa_1" data-name="Capa 1" xmlns="http://www.w3.org/2000/svg" viewBox="0 0 569 166.59">
  <defs>
    <style>
      .cls-1 {
        fill: #1d1d1b;
      }
    </style>
  </defs>
  <g>
    <path class="cls-1" d="M261.26,82.64h0s0,0,0,0h0c0,.21,0,.43,0,.64,0,.21,0,.43,0,.64h0s0,0,0,0h0c.08,5.74,1.25,11.31,3.47,16.57.61,1.44,1.29,2.84,2.04,4.2,1.12,2.03,2.4,3.96,3.83,5.78.54.69,1.11,1.37,1.69,2.04.61.7,1.25,1.38,1.92,2.04,1.37,1.37,2.82,2.64,4.34,3.81,2.98,2.29,6.23,4.19,9.72,5.66,5.46,2.31,11.25,3.48,17.22,3.48s11.76-1.17,17.22-3.48c5.27-2.23,10-5.42,14.06-9.47,1.29-1.29,2.5-2.66,3.61-4.08-1.53-2.39-2.85-4.9-3.97-7.54-.58-1.37-1.09-2.75-1.54-4.15-2.46,4.66-6.07,8.76-10.67,11.96-3.78,2.62-8.11,4.41-12.63,5.2-11.07,1.95-21.86-1.5-29.54-9.19-1.27-1.27-2.43-2.63-3.46-4.05-.9-1.25-1.72-2.55-2.43-3.91-2.37-4.48-3.69-9.46-3.82-14.65,0-.07,0-.15,0-.23h0c0-.22,0-.43,0-.64,0-.21,0-.42,0-.62h0c0-.61-.03-1.21-.06-1.81h.07v1.57c.07-2.68.45-5.3,1.13-7.82.64-2.37,1.54-4.66,2.69-6.83,2.48-4.69,6.13-8.82,10.79-12.02,3.79-2.61,8.13-4.37,12.66-5.15,11.01-1.89,21.74,1.56,29.39,9.22,2.39,2.39,4.36,5.07,5.9,7.97,2.5,4.72,3.82,10.01,3.82,15.5,0,5.97,1.17,11.76,3.48,17.22.61,1.44,1.29,2.83,2.04,4.19,1.12,2.03,2.4,3.96,3.83,5.79,1.11,1.43,2.32,2.79,3.61,4.08,4.06,4.06,8.79,7.25,14.06,9.47,5.46,2.31,11.25,3.48,17.22,3.48,5.97,0,11.76-1.17,17.22-3.48,5.27-2.23,10-5.42,14.06-9.47,1.29-1.29,2.5-2.66,3.61-4.08,1.43-1.83,2.71-3.76,3.83-5.79.75-1.35,1.43-2.75,2.04-4.19,2.31-5.46,3.48-11.25,3.48-17.22s-1.17-11.76-3.48-17.22c-.61-1.44-1.29-2.83-2.04-4.19-1.12-2.03-2.4-3.96-3.83-5.79-1.11-1.43-2.32-2.79-3.61-4.08-4.06-4.06-8.79-7.25-14.06-9.48-5.46-2.31-11.25-3.48-17.22-3.48-5.97,0-11.76,1.17-17.22,3.48-5.27,2.23-10,5.42-14.06,9.48-1.29,1.29-2.5,2.66-3.61,4.08,1.53,2.39,2.85,4.9,3.97,7.54.58,1.37,1.09,2.75,1.54,4.15,2.21-4.17,5.33-7.9,9.26-10.93,4.53-3.49,9.94-5.73,15.61-6.47,10.51-1.37,20.65,2.11,27.97,9.43,2.39,2.39,4.37,5.07,5.9,7.97,2.5,4.72,3.82,10.01,3.82,15.5,0,5.49-1.32,10.78-3.82,15.5-2.47,4.67-6.09,8.78-10.72,11.99-3.78,2.62-8.12,4.4-12.65,5.19-11.04,1.92-21.8-1.53-29.47-9.2-2.39-2.39-4.36-5.07-5.9-7.97-2.5-4.72-3.83-10.01-3.83-15.5,0-5.97-1.17-11.76-3.48-17.22-.61-1.44-1.29-2.83-2.04-4.19-1.12-2.03-2.4-3.96-3.83-5.79-1.11-1.43-2.32-2.79-3.61-4.08-4.06-4.06-8.79-7.25-14.06-9.48-5.46-2.31-11.25-3.48-17.22-3.48-5.97,0-11.76,1.17-17.22,3.48-5.27,2.23-10,5.42-14.06,9.48-1.29,1.29-2.5,2.65-3.61,4.07-1.43,1.83-2.71,3.76-3.83,5.79-.75,1.36-1.43,2.76-2.04,4.2-1.17,2.76-2.05,5.61-2.63,8.53-.41,2.05-.67,4.14-.79,6.25-.03.59-.05,1.19-.06,1.79Z"/>
    <path class="cls-1" d="M262.94,110.48c-1.11,1.43-2.32,2.79-3.61,4.08-4.06,4.06-8.79,7.25-14.06,9.47-5.45,2.31-11.25,3.48-17.22,3.48s-11.76-1.17-17.22-3.48c-5.27-2.23-10-5.42-14.06-9.47-4.06-4.06-7.25-8.79-9.47-14.06-1.32-3.12-2.27-6.36-2.84-9.67-.35-2.06-.56-4.14-.62-6.25-.01-.43-.02-.86-.02-1.29v-44.87h11.04v43.97c0,.3-.01.6-.01.9s0,.6.01.9c.06,2.26.34,4.49.84,6.65,1.73,7.48,6.03,14.19,12.46,19.06,4.48,3.39,9.81,5.57,15.38,6.3,10.51,1.37,20.65-2.11,27.97-9.43,2.39-2.39,4.36-5.07,5.9-7.97.45,1.4.97,2.78,1.54,4.15,1.11,2.64,2.44,5.15,3.97,7.54Z"/>
    <path class="cls-1" d="M504.54,83.29c0,5.97-1.17,11.76-3.48,17.22-2.23,5.27-5.41,10-9.47,14.06-4.06,4.06-8.79,7.25-14.06,9.47-5.46,2.31-11.25,3.48-17.21,3.48s-11.76-1.17-17.22-3.48c-3.49-1.48-6.74-3.37-9.72-5.66-1.52-1.17-2.97-2.44-4.34-3.81-.66-.66-1.3-1.34-1.92-2.04v11.29h0v25.37h-11.04v-27.86c.86-.75,1.69-1.53,2.5-2.34,1.06-1.06,2.06-2.15,3.01-3.29,1.39-1.66,2.67-3.39,3.83-5.2.59-.93,1.16-1.88,1.69-2.85.84-1.52,1.6-3.09,2.28-4.7.58-1.36,1.09-2.74,1.54-4.13.71,1.35,1.53,2.66,2.43,3.9,1.71,2.36,3.75,4.52,6.09,6.43,5.05,4.11,11.27,6.63,17.76,7.21,10,.9,19.56-2.59,26.56-9.58,7.32-7.32,10.8-17.45,9.43-27.96-.74-5.65-2.97-11.05-6.44-15.57-7.7-10.04-19.92-14.81-32.5-12.61-4.51.79-8.82,2.56-12.59,5.16-4.63,3.2-8.27,7.32-10.75,12-.45-1.39-.96-2.77-1.54-4.13-1.12-2.64-2.44-5.16-3.97-7.55,1.11-1.42,2.32-2.78,3.61-4.07,4.06-4.06,8.79-7.25,14.06-9.48,5.46-2.31,11.25-3.48,17.22-3.48s11.76,1.17,17.21,3.48c5.27,2.23,10,5.42,14.06,9.48,4.06,4.06,7.25,8.79,9.47,14.06,2.31,5.45,3.48,11.25,3.48,17.22Z"/>
  </g>
  <g>
    <path class="cls-1" d="M162.54,79.21c-.88,7.58-6.89,13.83-14.44,14.96-2.87.43-5.61.16-8.11-.68-1.72-.58-3.33-1.42-4.76-2.47-.37-.28-.75-.5-1.14-.7-2.19-1.08-4.84-1.01-7.07.14l-2.81,1.47-1.26.66c-.28.14-.55.3-.8.47,0,0-1.08.76-1.88,1.88-1.41,1.95-1.51,4.55-1.52,4.93,0,.41-.01.8-.04,1.2-.18,2.73,1.14,5.34,3.34,6.95l.46.26c2.55,1.47,5.7,1.43,8.17-.16,3.17-2.06,7.07-3.11,11.24-2.68,7.83.81,14.23,7.07,15.21,14.89,1.42,11.34-8.19,20.84-19.53,19.27-7.66-1.06-13.77-7.33-14.63-15.01-.11-.92-.14-1.83-.11-2.72.11-2.73-1.08-5.34-3.25-6.91l-.96-.55c-2.55-1.47-5.68-1.34-8.2.18-.13.08-.26.16-.39.24-2.63,1.5-4.27,4.25-4.15,7.25l.17,4.72c.12,3.05,2.01,5.68,4.77,6.97,5.87,2.75,9.94,8.7,9.94,15.6,0,10.15-8.78,18.24-19.16,17.11-7.87-.87-14.26-7.24-15.14-15.11-.81-7.15,2.76-13.54,8.37-16.84,2.56-1.51,4.17-4.23,4.06-7.2l-.18-4.93c-.12-2.93-1.77-5.66-4.43-6.9-6.64-3.08-10.97-10.25-9.78-18.27,1.08-7.24,6.85-13.12,14.08-14.33,4.81-.79,9.36.42,12.89,2.94,1.33.93,2.9,1.38,4.48,1.34.71-.03,1.79-.21,2.59-.49.12-.05.54-.2,1.04-.39.18-.08.53-.21.89-.37.85-.35,1.12-.5,1.67-.74.39-.17.97-.41,1.72-.64h.04s.01-.01.01-.03c2.63-1.35,4.35-4.05,4.3-7.01,0-.09,0-.2.01-.3,0-.24,0-.49.01-.74-.01-.07,0-.12,0-.18.03-.25.04-.5.07-.76.04-.54.12-1.09.24-1.63.09-.5.21-.99.35-1.47.08-.28.17-.55.26-.81,2.12-6.15,7.66-10.88,14.4-11.59,11.05-1.16,20.25,8.12,18.96,19.18Z"/>
    <path class="cls-1" d="M129.55,18.56c-7.06-2.91-15.43-.68-20.08,5.38-1.77,2.3-2.86,4.83-3.33,7.42-.33,1.79-.37,3.6-.15,5.36.06.46.07.9.05,1.34-.12,2.44-1.46,4.72-3.55,6.11l-2.65,1.75-1.19.78c-.26.17-.53.34-.8.47,0,0-1.19.57-2.55.73-2.38.29-4.71-.88-5.05-1.06-.36-.2-.71-.38-1.07-.55-2.48-1.16-4.11-3.59-4.46-6.29v-.53c-.06-2.94,1.51-5.68,4.09-7.07,3.34-1.77,6.15-4.67,7.79-8.53,3.09-7.25.72-15.88-5.65-20.52-9.23-6.74-22.2-2.95-26.32,7.74-2.78,7.22-.26,15.6,6.03,20.07.75.54,1.53,1.01,2.33,1.41,2.44,1.23,4.14,3.53,4.47,6.19l.02,1.11c.05,2.94-1.58,5.62-4.14,7.08-.13.08-.27.15-.4.23-2.58,1.57-5.78,1.68-8.36.11l-4.04-2.44c-2.61-1.58-3.99-4.51-3.78-7.55.45-6.47-2.79-12.91-8.83-16.25-8.87-4.92-20.21-1.17-24.26,8.46-3.06,7.31-.58,15.98,5.88,20.57,5.86,4.18,13.18,4.15,18.78.84,2.56-1.51,5.72-1.59,8.27-.06l4.22,2.55c2.51,1.52,4.09,4.3,3.89,7.22-.53,7.3,3.64,14.57,11.24,17.41,6.86,2.57,14.79.37,19.35-5.36,3.02-3.82,4.17-8.39,3.68-12.7-.17-1.61.2-3.21,1-4.57.37-.61,1.05-1.46,1.68-2.03.1-.08.43-.38.85-.72.16-.12.44-.36.76-.6.72-.58.98-.73,1.45-1.1.34-.26.83-.65,1.4-1.19l.03-.03s0-.01.02,0c2.46-1.64,5.65-1.84,8.21-.36.08.04.17.1.27.14.21.11.43.24.65.35.05.04.1.06.16.09.23.1.46.21.7.31.49.23,1.01.43,1.54.58.48.16.96.29,1.46.4.28.06.57.12.84.17,6.41,1.13,13.23-1.43,17.12-6.98,6.37-9.11,2.72-21.65-7.58-25.88Z"/>
    <path class="cls-1" d="M.12,79.21c.88,7.58,6.89,13.83,14.44,14.96,2.87.43,5.61.16,8.11-.68,1.72-.58,3.33-1.42,4.76-2.47.37-.28.75-.5,1.14-.7,2.19-1.08,4.84-1.01,7.07.14l2.81,1.47,1.26.66c.28.14.55.3.8.47,0,0,1.08.76,1.88,1.88,1.41,1.95,1.51,4.55,1.52,4.93,0,.41.01.8.04,1.2.18,2.73-1.14,5.34-3.34,6.95l-.46.26c-2.55,1.47-5.7,1.43-8.17-.16-3.17-2.06-7.07-3.11-11.24-2.68-7.83.81-14.23,7.07-15.21,14.89-1.42,11.34,8.19,20.84,19.53,19.27,7.66-1.06,13.77-7.33,14.63-15.01.11-.92.14-1.83.11-2.72-.11-2.73,1.08-5.34,3.25-6.91l.96-.55c2.55-1.47,5.68-1.34,8.2.18.13.08.26.16.39.24,2.63,1.5,4.27,4.25,4.15,7.25l-.17,4.72c-.12,3.05-2.01,5.68-4.77,6.97-5.87,2.75-9.94,8.7-9.94,15.6,0,10.15,8.78,18.24,19.16,17.11,7.87-.87,14.26-7.24,15.14-15.11.81-7.15-2.76-13.54-8.37-16.84-2.56-1.51-4.17-4.23-4.06-7.2l.18-4.93c.12-2.93,1.77-5.66,4.43-6.9,6.64-3.08,10.97-10.25,9.78-18.27-1.08-7.24-6.85-13.12-14.08-14.33-4.81-.79-9.36.42-12.89,2.94-1.33.93-2.9,1.38-4.48,1.34-.71-.03-1.79-.21-2.59-.49-.12-.05-.54-.2-1.04-.39-.18-.08-.53-.21-.89-.37-.85-.35-1.12-.5-1.67-.74-.39-.17-.97-.41-1.72-.64h-.04s-.01-.01-.01-.03c-2.63-1.35-4.35-4.05-4.3-7.01,0-.09,0-.2-.01-.3,0-.24,0-.49-.01-.74.01-.07,0-.12,0-.18-.03-.25-.04-.5-.07-.76-.04-.54-.12-1.09-.24-1.63-.09-.5-.21-.99-.35-1.47-.08-.28-.17-.55-.26-.81-2.12-6.15-7.66-10.88-14.4-11.59C8.03,58.88-1.17,68.16.12,79.21Z"/>
  </g>
  <g>
    <path class="cls-1" d="M555.81,105.41v22.11h-5.42v-22.11c0-2.24-.44-4.42-1.28-6.42-.83-1.99-2.04-3.81-3.61-5.38-3.15-3.15-7.34-4.89-11.8-4.89s-8.65,1.74-11.8,4.89c-3.15,3.15-4.89,7.34-4.89,11.8s1.74,8.65,4.89,11.8c3.15,3.15,7.34,4.89,11.8,4.89s8.48-1.67,11.61-4.7v6.84c-.96.59-1.96,1.11-3.01,1.55-2.73,1.15-5.62,1.74-8.61,1.74s-5.88-.58-8.61-1.74c-2.63-1.11-5-2.71-7.03-4.74-2.03-2.03-3.62-4.39-4.74-7.03-1.15-2.73-1.74-5.62-1.74-8.61s.59-5.88,1.74-8.61c1.11-2.63,2.71-5,4.74-7.03s4.39-3.62,7.03-4.74c2.73-1.15,5.62-1.74,8.61-1.74s5.88.58,8.61,1.74c2.63,1.11,5,2.71,7.03,4.74,2.03,2.03,3.62,4.39,4.74,7.03.3.72.57,1.44.79,2.18.5,1.65.8,3.34.91,5.08.03.45.04.9.04,1.35Z"/>
    <path class="cls-1" d="M564.89,92.83h1.89c.97,0,1.76.79,1.76,1.76v32.92h-5.42v-32.92c0-.97.79-1.76,1.76-1.76Z"/>
    <circle class="cls-1" cx="565.84" cy="86.46" r="3.16"/>
  </g>
</svg>